<svg width="172" viewBox="0 0 217.5 48" xmlns="http://www.w3.org/2000/svg" xmlns:xlink="http://www.w3.org/1999/xlink"><style>.st0{fill:#db2b21}.st3{fill:#b4b1b1}</style><path class="st0" d="M59.5.2v16.7h4.4V4.1h5.8v12.8h4.5V.2z"/><defs><path id="i" d="M0 0h217.5v48H0z"/></defs><clipPath id="h"><use xlink:href="#i"/></clipPath><path d="M83.5 13.1c.8 0 1.5-.1 1.9-.2s.7-.4.9-.8.3-1 .3-1.8V6.7c0-.6-.1-1.1-.2-1.5s-.3-.6-.5-.8-.5-.3-.9-.4-.9-.1-1.5-.1c-.8 0-1.5.1-1.9.2s-.7.4-.9.7c-.2.4-.3 1-.3 1.8v3.8c0 .8.1 1.4.3 1.8s.5.6.9.8 1 .1 1.9.1m0 3.9c-1.2 0-2.3-.1-3.2-.3s-1.7-.5-2.4-.9-1.2-1.1-1.6-1.9-.6-1.8-.6-3.1V6.2c0-1.2.2-2.3.6-3.1s.9-1.4 1.6-1.9 1.5-.7 2.4-.9 2-.3 3.2-.3 2.3.1 3.2.3 1.7.5 2.4.9 1.2 1.1 1.6 1.9.6 1.8.6 3.1v4.7c0 1.2-.2 2.3-.6 3.1s-.9 1.4-1.6 1.9c-.7.4-1.5.7-2.4.9-.9.1-2 .2-3.2.2m13.6-8.3h3c.6 0 1-.1 1.3-.2s.4-.3.5-.7c.1-.3.1-.9.1-1.6 0-.6 0-1.1-.1-1.4s-.3-.5-.6-.7-.7-.2-1.3-.2h-3v4.8zm0 8.2h-4.4V.2h8.4c1 0 1.9.1 2.7.3.7.2 1.3.6 1.7 1.1s.8 1.1 1 1.9.3 1.7.3 2.8c0 1.2-.1 2.2-.3 3s-.5 1.4-.9 1.9-1 .8-1.7 1-1.7.3-2.9.3h-3.9v4.4z" clip-path="url(#h)" fill="#db2b21"/><path class="st0" d="M106.6.2v3.9h4.3v12.8h4.5V4.1h4.4V.2zm20.9 3.3l2.1 7.2h-4.1l2-7.2zM124 .2l-5 16.7h4.6l.8-2.9h6l.9 2.9h4.5L130.7.2H124z"/><defs><path id="g" d="M0 0h217.5v48H0z"/></defs><clipPath id="f"><use xlink:href="#g"/></clipPath><path d="M138.3.2h13.5v16.7h-4.5V4.1h-4.8v7c0 1.2-.2 2.3-.5 3.2-.4.9-.9 1.6-1.7 2-.7.5-1.7.7-2.8.7-.8 0-1.6-.1-2.3-.2v-3.6c.3.1.8.2 1.4.2s1-.2 1.3-.5c.2-.3.4-.9.4-1.7V.2z" clip-path="url(#f)" fill="#db2b21"/><path class="st3" d="M59.5 23.7h12.2v15.1H70V25.2h-8.8v13.6h-1.7z"/><defs><path id="e" d="M0 0h217.5v48H0z"/></defs><clipPath id="d"><use xlink:href="#e"/></clipPath><path d="M75.4 34.5c.1.8.3 1.4.6 1.8s.8.7 1.4.9 1.4.2 2.5.2 1.9-.1 2.5-.2c.6-.2 1-.5 1.4-.9.3-.4.5-1 .6-1.8s.2-1.9.2-3.3c0-1.5 0-2.6-.2-3.3-.1-.8-.3-1.4-.6-1.8s-.8-.7-1.3-.9c-.7-.1-1.5-.2-2.6-.2s-1.9.1-2.5.2c-.6.2-1 .4-1.3.9-.3.4-.5 1-.6 1.8s-.2 1.9-.2 3.3c-.1 1.5 0 2.6.1 3.3m-1.6-7.3c.2-1 .5-1.8 1-2.3s1.1-.9 1.9-1.1 1.9-.3 3.2-.3 2.4.1 3.2.3 1.4.6 1.9 1.1.8 1.3 1 2.3.3 2.3.3 4-.1 3-.3 4-.5 1.8-1 2.3-1.1.9-1.9 1.1-1.9.3-3.2.3-2.4-.1-3.2-.3-1.4-.6-1.9-1.1-.8-1.3-1-2.3-.3-2.3-.3-4c.1-1.6.1-3 .3-4m24 6.5h1.6c0 1.3-.2 2.4-.5 3.1s-.9 1.3-1.8 1.6-2.1.5-3.7.5c-1.2 0-2.2-.1-2.9-.3s-1.4-.6-1.8-1.1c-.5-.5-.8-1.3-1-2.3s-.3-2.3-.3-3.9.1-2.9.3-3.9.5-1.8 1-2.3c.5-.6 1.1-.9 1.8-1.2.8-.2 1.7-.3 2.9-.3s2.2.1 2.9.3 1.3.5 1.7.9.7.9.8 1.5c.2.6.3 1.4.3 2.3h-1.6c-.1-1-.3-1.7-.4-2.2s-.6-.8-1.1-1-1.4-.4-2.6-.4c-.9 0-1.6.1-2.2.3-.5.2-1 .5-1.3.9s-.5 1.1-.7 1.9a25.837 25.837 0 000 6.4c.1.8.4 1.4.7 1.8s.8.7 1.3.9 1.3.2 2.2.2 1.7-.1 2.2-.2c.6-.1 1-.3 1.3-.6s.5-.6.7-1.1c.1-.4.2-1 .2-1.8" clip-path="url(#d)" fill="#b4b1b1"/><path class="st3" d="M104.6 38.8V25.2h-5v-1.5h11.6v1.5h-4.9v13.6zm17.1-4.6l-3.3-9.3-3.3 9.3h6.6zm-10.2 4.6l5.5-15.1h2.4l5.6 15.1h-1.8l-1.1-3.1h-7.6l-1.2 3.1h-1.8z"/><defs><path id="c" d="M0 0h217.5v48H0z"/></defs><clipPath id="b"><use xlink:href="#c"/></clipPath><path d="M128.2 31.7v5.5h4.7c.7 0 1.3 0 1.7-.1s.8-.2 1-.4c.3-.2.5-.5.6-.8.1-.4.2-.9.2-1.5 0-.8-.1-1.4-.2-1.8-.2-.4-.4-.6-.8-.8-.4-.1-1-.2-1.8-.2h-5.4zm0-6.5v5.1h4.8c.8 0 1.3-.1 1.8-.2.4-.2.7-.4.9-.8s.3-.9.3-1.7c0-.9-.2-1.6-.5-1.9s-.9-.5-1.8-.5h-5.5zm6 13.6h-7.7V23.7h7.3c1.3 0 2.3.3 2.9.9s.9 1.5.9 2.9c0 .6 0 1.2-.1 1.6s-.3.8-.5 1.1-.7.6-1.2.8c.6.2 1.1.4 1.5.7.3.3.6.7.7 1.1s.2 1 .2 1.7c0 1.4-.3 2.5-.9 3.2-.7.7-1.7 1.1-3.1 1.1" clip-path="url(#b)" fill="#b4b1b1"/><path class="st3" d="M149.3 23.7h1.7v13.6h7.7V23.7h1.7v13.6h1v5h-1.5v-3.5H140V23.7h1.6v13.6h7.7zm13.8 0h1.7v13.9l8.6-13.9h2.7v15.1h-1.7V25l-8.6 13.8h-2.7zm17.1 0v6.6h1.5l6.2-6.6h2.2l-6.9 7.3 7.7 7.8h-2.3l-6.9-7h-1.5v7h-1.7V23.7z"/><defs><path id="a" d="M0 0h217.5v48H0z"/></defs><clipPath id="j"><use xlink:href="#a"/></clipPath><path d="M193.4 34.5c.1.8.3 1.4.6 1.8s.8.7 1.4.9 1.4.2 2.5.2 1.9-.1 2.5-.2c.6-.2 1-.5 1.4-.9.3-.4.5-1 .6-1.8s.2-1.9.2-3.3c0-1.5-.1-2.6-.2-3.3-.1-.8-.3-1.4-.6-1.8s-.8-.7-1.3-.9c-.6-.2-1.4-.2-2.5-.2s-1.9.1-2.5.2c-.6.2-1 .4-1.3.9-.3.4-.5 1-.6 1.8s-.2 1.9-.2 3.3c-.2 1.5-.1 2.6 0 3.3m-1.6-7.3c.2-1 .5-1.8 1-2.3s1.1-.9 1.9-1.1 1.9-.3 3.2-.3 2.4.1 3.2.3 1.4.6 1.9 1.1.8 1.3 1 2.3.3 2.3.3 4-.1 3-.3 4-.5 1.8-1 2.3-1.1.9-1.9 1.1-1.9.3-3.2.3-2.4-.1-3.2-.3-1.4-.6-1.9-1.1-.8-1.3-1-2.3-.3-2.3-.3-4c0-1.6.1-3 .3-4m15.8 4.5v5.5h4.7c.7 0 1.3 0 1.7-.1s.8-.2 1-.4c.3-.2.5-.5.6-.8.1-.4.2-.9.2-1.5 0-.8-.1-1.4-.2-1.8-.2-.4-.4-.6-.8-.8-.4-.1-1-.2-1.8-.2h-5.4zm0-6.5v5.1h4.8c.8 0 1.3-.1 1.8-.2.4-.2.7-.4.9-.8s.3-.9.3-1.7c0-.9-.2-1.6-.5-1.9s-.9-.5-1.8-.5h-5.5zm6 13.6h-7.7V23.7h7.3c1.3 0 2.3.3 2.9.9s.9 1.5.9 2.9c0 .6 0 1.2-.1 1.6s-.3.8-.5 1.1-.7.6-1.2.8c.6.2 1.1.4 1.5.7.3.3.6.7.7 1.1s.2 1 .2 1.7c0 1.4-.3 2.5-.9 3.2-.7.7-1.7 1.1-3.1 1.1" clip-path="url(#j)" fill="#b4b1b1"/><path class="st3" d="M8.2 16.3h23.5v23.5H8.2V16.3zM0 48h39.9V8.1H0V48z"/><path class="st0" d="M16.3 8.2h23.5v23.5H16.3V8.2zM8.1 39.9H48V0H8.1v39.9z"/><path class="st3" d="M31.7 8.2v31.7l8.2 8.1V8.1z"/></svg>
