<svg width="73" height="15" viewBox="0 0 73 15" fill="none" xmlns="http://www.w3.org/2000/svg">
<path d="M2.38597 12H1.37797V3.54H3.11797L5.78197 10.536H5.93797L8.61397 3.54H10.318V12H9.30997V4.704H9.15397L6.35797 12H5.32597L2.54197 4.704H2.38597V12ZM13.3213 12H12.3013V3.54H13.3213V12ZM17.8558 12.12C17.0958 12.12 16.4438 11.928 15.8998 11.544C15.3558 11.152 14.9758 10.62 14.7598 9.948L15.7318 9.792C15.9558 10.264 16.2398 10.612 16.5838 10.836C16.9358 11.06 17.3598 11.172 17.8558 11.172C18.3918 11.172 18.8198 11.052 19.1398 10.812C19.4678 10.572 19.6318 10.248 19.6318 9.84C19.6318 9.408 19.4638 9.076 19.1278 8.844C18.7918 8.612 18.3118 8.396 17.6878 8.196C17.1598 8.02 16.7238 7.844 16.3798 7.668C16.0358 7.484 15.7478 7.236 15.5158 6.924C15.2838 6.604 15.1678 6.204 15.1678 5.724C15.1678 5.268 15.2838 4.868 15.5158 4.524C15.7478 4.172 16.0678 3.9 16.4758 3.708C16.8838 3.516 17.3438 3.42 17.8558 3.42C18.5358 3.42 19.1238 3.6 19.6198 3.96C20.1238 4.312 20.4798 4.8 20.6878 5.424L19.7278 5.58C19.5598 5.188 19.3118 4.888 18.9838 4.68C18.6638 4.464 18.2878 4.356 17.8558 4.356C17.3758 4.356 16.9838 4.476 16.6798 4.716C16.3758 4.956 16.2238 5.268 16.2238 5.652C16.2238 5.948 16.3118 6.2 16.4878 6.408C16.6718 6.608 16.8958 6.772 17.1598 6.9C17.4238 7.028 17.7598 7.16 18.1678 7.296C18.6798 7.472 19.1118 7.652 19.4638 7.836C19.8158 8.02 20.1078 8.272 20.3398 8.592C20.5718 8.904 20.6878 9.296 20.6878 9.768C20.6878 10.232 20.5638 10.644 20.3158 11.004C20.0758 11.356 19.7398 11.632 19.3078 11.832C18.8838 12.024 18.3998 12.12 17.8558 12.12ZM23.3291 12H22.3091V3.54H23.3291V12ZM27.8637 12.12C27.1037 12.12 26.4517 11.928 25.9077 11.544C25.3637 11.152 24.9837 10.62 24.7677 9.948L25.7397 9.792C25.9637 10.264 26.2477 10.612 26.5917 10.836C26.9437 11.06 27.3677 11.172 27.8637 11.172C28.3997 11.172 28.8277 11.052 29.1477 10.812C29.4757 10.572 29.6397 10.248 29.6397 9.84C29.6397 9.408 29.4717 9.076 29.1357 8.844C28.7997 8.612 28.3197 8.396 27.6957 8.196C27.1677 8.02 26.7317 7.844 26.3877 7.668C26.0437 7.484 25.7557 7.236 25.5237 6.924C25.2917 6.604 25.1757 6.204 25.1757 5.724C25.1757 5.268 25.2917 4.868 25.5237 4.524C25.7557 4.172 26.0757 3.9 26.4837 3.708C26.8917 3.516 27.3517 3.42 27.8637 3.42C28.5437 3.42 29.1317 3.6 29.6277 3.96C30.1317 4.312 30.4877 4.8 30.6957 5.424L29.7357 5.58C29.5677 5.188 29.3197 4.888 28.9917 4.68C28.6717 4.464 28.2957 4.356 27.8637 4.356C27.3837 4.356 26.9917 4.476 26.6877 4.716C26.3837 4.956 26.2317 5.268 26.2317 5.652C26.2317 5.948 26.3197 6.2 26.4957 6.408C26.6797 6.608 26.9037 6.772 27.1677 6.9C27.4317 7.028 27.7677 7.16 28.1757 7.296C28.6877 7.472 29.1197 7.652 29.4717 7.836C29.8237 8.02 30.1157 8.272 30.3477 8.592C30.5797 8.904 30.6957 9.296 30.6957 9.768C30.6957 10.232 30.5717 10.644 30.3237 11.004C30.0837 11.356 29.7477 11.632 29.3157 11.832C28.8917 12.024 28.4077 12.12 27.8637 12.12ZM32.1969 12V3.54H33.1569V6.696C33.3649 6.384 33.6249 6.144 33.9369 5.976C34.2569 5.808 34.6089 5.724 34.9929 5.724C35.4409 5.724 35.8369 5.832 36.1809 6.048C36.5329 6.256 36.8049 6.552 36.9969 6.936C37.1969 7.32 37.2969 7.752 37.2969 8.232V12H36.3369V8.28C36.3369 7.784 36.1969 7.38 35.9169 7.068C35.6369 6.756 35.2729 6.6 34.8249 6.6C34.5209 6.6 34.2409 6.672 33.9849 6.816C33.7289 6.96 33.5249 7.16 33.3729 7.416C33.2289 7.672 33.1569 7.96 33.1569 8.28V12H32.1969ZM41.13 12.12C40.69 12.12 40.298 12.016 39.954 11.808C39.61 11.592 39.342 11.292 39.15 10.908C38.958 10.524 38.862 10.092 38.862 9.612V5.844H39.822V9.564C39.822 10.06 39.958 10.464 40.23 10.776C40.51 11.088 40.87 11.244 41.31 11.244C41.606 11.244 41.878 11.172 42.126 11.028C42.382 10.884 42.582 10.684 42.726 10.428C42.87 10.172 42.942 9.884 42.942 9.564V5.844H43.902V12H43.254L43.002 11.064C42.794 11.4 42.53 11.66 42.21 11.844C41.89 12.028 41.53 12.12 41.13 12.12ZM45.5783 12V5.844H46.2263L46.4783 6.78C46.6863 6.444 46.9503 6.184 47.2703 6C47.5983 5.816 47.9663 5.724 48.3743 5.724C48.8223 5.724 49.2183 5.832 49.5623 6.048C49.9143 6.256 50.1863 6.552 50.3783 6.936C50.5783 7.32 50.6783 7.752 50.6783 8.232V12H49.7183V8.28C49.7183 7.784 49.5783 7.38 49.2983 7.068C49.0183 6.756 48.6543 6.6 48.2063 6.6C47.9023 6.6 47.6223 6.672 47.3663 6.816C47.1103 6.96 46.9063 7.16 46.7543 7.416C46.6103 7.672 46.5383 7.96 46.5383 8.28V12H45.5783ZM55.7251 11.136L55.6411 12H54.6211C54.0131 12 53.5451 11.844 53.2171 11.532C52.8971 11.22 52.7371 10.772 52.7371 10.188V6.708H51.6331V5.844H52.7371L53.0491 4.044H53.6971V5.844H55.6411V6.708H53.6971V10.188C53.6971 10.82 54.0051 11.136 54.6211 11.136H55.7251ZM62.6728 8.904C62.6728 9.008 62.6688 9.108 62.6608 9.204H57.4528C57.5088 9.82 57.7368 10.312 58.1368 10.68C58.5368 11.048 59.0448 11.232 59.6608 11.232C60.0928 11.232 60.4768 11.144 60.8128 10.968C61.1488 10.792 61.3968 10.56 61.5568 10.272L62.4568 10.416C62.2088 10.968 61.8288 11.392 61.3168 11.688C60.8048 11.976 60.2368 12.12 59.6128 12.12C58.9968 12.12 58.4488 11.984 57.9688 11.712C57.4888 11.44 57.1128 11.06 56.8408 10.572C56.5768 10.084 56.4448 9.532 56.4448 8.916C56.4448 8.3 56.5768 7.752 56.8408 7.272C57.1048 6.784 57.4728 6.404 57.9448 6.132C58.4168 5.86 58.9528 5.724 59.5528 5.724C60.1528 5.724 60.6888 5.86 61.1608 6.132C61.6328 6.404 62.0008 6.784 62.2648 7.272C62.5368 7.752 62.6728 8.296 62.6728 8.904ZM59.5528 6.588C59.0248 6.588 58.5728 6.752 58.1968 7.08C57.8288 7.4 57.5928 7.832 57.4888 8.376H61.6288C61.5328 7.84 61.2968 7.408 60.9208 7.08C60.5528 6.752 60.0968 6.588 59.5528 6.588ZM63.8713 12V5.844H64.5193L64.7593 6.72C65.1033 6.136 65.6313 5.844 66.3433 5.844H66.6553L66.7513 6.768H66.1992C65.7353 6.768 65.3913 6.912 65.1673 7.2C64.9433 7.48 64.8313 7.848 64.8313 8.304V12H63.8713ZM69.6755 12.12C69.0115 12.12 68.4515 11.972 67.9955 11.676C67.5395 11.372 67.2435 10.956 67.1075 10.428L68.0075 10.284C68.1355 10.596 68.3435 10.84 68.6315 11.016C68.9195 11.184 69.2755 11.268 69.6995 11.268C70.0835 11.268 70.4035 11.196 70.6595 11.052C70.9235 10.9 71.0555 10.676 71.0555 10.38C71.0555 10.116 70.9355 9.916 70.6955 9.78C70.4555 9.636 70.0595 9.48 69.5075 9.312C69.0675 9.184 68.7035 9.056 68.4155 8.928C68.1275 8.792 67.8835 8.604 67.6835 8.364C67.4835 8.124 67.3835 7.816 67.3835 7.44C67.3835 6.92 67.5875 6.504 67.9955 6.192C68.4115 5.88 68.9355 5.724 69.5675 5.724C70.1435 5.724 70.6435 5.868 71.0675 6.156C71.4915 6.436 71.7955 6.824 71.9795 7.32L71.0915 7.464C70.7795 6.872 70.2795 6.576 69.5915 6.576C69.2475 6.576 68.9555 6.648 68.7155 6.792C68.4835 6.928 68.3675 7.132 68.3675 7.404C68.3675 7.668 68.4875 7.876 68.7275 8.028C68.9755 8.172 69.3515 8.316 69.8555 8.46C70.3195 8.596 70.6995 8.736 70.9955 8.88C71.2995 9.024 71.5475 9.216 71.7395 9.456C71.9395 9.688 72.0395 9.984 72.0395 10.344C72.0395 10.68 71.9435 10.984 71.7515 11.256C71.5595 11.52 71.2835 11.732 70.9235 11.892C70.5715 12.044 70.1555 12.12 69.6755 12.12Z" fill="white"/>
</svg>
